<mxfile host="65bd71144e">
    <diagram id="C5RBs43oDa-KdzZeNtuy" name="Page-1">
        <mxGraphModel dx="749" dy="611" grid="1" gridSize="10" guides="1" tooltips="1" connect="1" arrows="1" fold="1" page="1" pageScale="1" pageWidth="827" pageHeight="1169" background="none" math="0" shadow="0">
            <root>
                <mxCell id="WIyWlLk6GJQsqaUBKTNV-0"/>
                <mxCell id="WIyWlLk6GJQsqaUBKTNV-1" parent="WIyWlLk6GJQsqaUBKTNV-0"/>
                <mxCell id="nWWq6aLDM8L6n2UznwfV-1" value="" style="edgeStyle=orthogonalEdgeStyle;rounded=1;orthogonalLoop=1;jettySize=auto;html=1;shadow=0;labelBackgroundColor=none;fontColor=#000000;fontFamily=Roboto;fontSource=https%3A%2F%2Ffonts.googleapis.com%2Fcss%3Ffamily%3DRoboto;" parent="WIyWlLk6GJQsqaUBKTNV-1" source="WIyWlLk6GJQsqaUBKTNV-11" target="nWWq6aLDM8L6n2UznwfV-0" edge="1">
                    <mxGeometry relative="1" as="geometry"/>
                </mxCell>
                <mxCell id="WIyWlLk6GJQsqaUBKTNV-11" value="Entities&lt;br&gt;(authors, concepts, works, etc)" style="rounded=1;whiteSpace=wrap;html=1;fontSize=12;glass=0;strokeWidth=1;shadow=0;perimeterSpacing=1;fontFamily=Roboto;labelBackgroundColor=none;fillColor=#f5f5f5;fontColor=#000000;strokeColor=#666666;fontStyle=0;fontSource=https%3A%2F%2Ffonts.googleapis.com%2Fcss%3Ffamily%3DRoboto;" parent="WIyWlLk6GJQsqaUBKTNV-1" vertex="1">
                    <mxGeometry x="240" y="80" width="177" height="59" as="geometry"/>
                </mxCell>
                <mxCell id="nWWq6aLDM8L6n2UznwfV-3" value="" style="edgeStyle=orthogonalEdgeStyle;rounded=1;orthogonalLoop=1;jettySize=auto;html=1;labelBackgroundColor=none;fontColor=#000000;fillColor=#ffe6cc;strokeColor=#d79b00;fontFamily=Roboto;fontSource=https%3A%2F%2Ffonts.googleapis.com%2Fcss%3Ffamily%3DRoboto;" parent="WIyWlLk6GJQsqaUBKTNV-1" source="nWWq6aLDM8L6n2UznwfV-0" target="nWWq6aLDM8L6n2UznwfV-2" edge="1">
                    <mxGeometry relative="1" as="geometry"/>
                </mxCell>
                <mxCell id="nWWq6aLDM8L6n2UznwfV-21" value="" style="edgeStyle=orthogonalEdgeStyle;rounded=1;orthogonalLoop=1;jettySize=auto;html=1;labelBackgroundColor=none;fontColor=#000000;fontFamily=Roboto;fontSource=https%3A%2F%2Ffonts.googleapis.com%2Fcss%3Ffamily%3DRoboto;" parent="WIyWlLk6GJQsqaUBKTNV-1" source="nWWq6aLDM8L6n2UznwfV-0" target="nWWq6aLDM8L6n2UznwfV-20" edge="1">
                    <mxGeometry relative="1" as="geometry"/>
                </mxCell>
                <mxCell id="nWWq6aLDM8L6n2UznwfV-0" value="Download Entity Manifest" style="whiteSpace=wrap;html=1;rounded=1;glass=0;strokeWidth=1;shadow=0;fillStyle=auto;labelBackgroundColor=none;fillColor=#ffe6cc;strokeColor=#d79b00;fontFamily=Roboto;fontSource=https%3A%2F%2Ffonts.googleapis.com%2Fcss%3Ffamily%3DRoboto;fontColor=#000000;" parent="WIyWlLk6GJQsqaUBKTNV-1" vertex="1">
                    <mxGeometry x="100" y="160" width="120" height="60" as="geometry"/>
                </mxCell>
                <mxCell id="nWWq6aLDM8L6n2UznwfV-6" value="" style="edgeStyle=orthogonalEdgeStyle;rounded=1;orthogonalLoop=1;jettySize=auto;html=1;labelBackgroundColor=none;fontColor=#000000;fillColor=#ffe6cc;strokeColor=#d79b00;fontFamily=Roboto;fontSource=https%3A%2F%2Ffonts.googleapis.com%2Fcss%3Ffamily%3DRoboto;" parent="WIyWlLk6GJQsqaUBKTNV-1" source="nWWq6aLDM8L6n2UznwfV-2" target="nWWq6aLDM8L6n2UznwfV-5" edge="1">
                    <mxGeometry relative="1" as="geometry"/>
                </mxCell>
                <mxCell id="nWWq6aLDM8L6n2UznwfV-2" value="Download Next Unsynced Snapshot File" style="whiteSpace=wrap;html=1;rounded=1;glass=0;strokeWidth=1;shadow=0;fillStyle=auto;labelBackgroundColor=none;fillColor=#ffe6cc;strokeColor=#d79b00;fontFamily=Roboto;fontSource=https%3A%2F%2Ffonts.googleapis.com%2Fcss%3Ffamily%3DRoboto;fontColor=#000000;" parent="WIyWlLk6GJQsqaUBKTNV-1" vertex="1">
                    <mxGeometry x="100" y="260" width="120" height="60" as="geometry"/>
                </mxCell>
                <mxCell id="nWWq6aLDM8L6n2UznwfV-8" value="" style="edgeStyle=orthogonalEdgeStyle;rounded=1;orthogonalLoop=1;jettySize=auto;html=1;labelBackgroundColor=none;fontColor=#000000;fillColor=#ffe6cc;strokeColor=#d79b00;fontFamily=Roboto;fontSource=https%3A%2F%2Ffonts.googleapis.com%2Fcss%3Ffamily%3DRoboto;" parent="WIyWlLk6GJQsqaUBKTNV-1" source="nWWq6aLDM8L6n2UznwfV-5" target="nWWq6aLDM8L6n2UznwfV-7" edge="1">
                    <mxGeometry relative="1" as="geometry"/>
                </mxCell>
                <mxCell id="nWWq6aLDM8L6n2UznwfV-5" value="Uncompress&lt;br&gt;&amp;nbsp;File" style="whiteSpace=wrap;html=1;rounded=1;glass=0;strokeWidth=1;shadow=0;fillStyle=auto;labelBackgroundColor=none;fillColor=#ffe6cc;strokeColor=#d79b00;fontFamily=Roboto;fontSource=https%3A%2F%2Ffonts.googleapis.com%2Fcss%3Ffamily%3DRoboto;fontColor=#000000;" parent="WIyWlLk6GJQsqaUBKTNV-1" vertex="1">
                    <mxGeometry x="100" y="360" width="120" height="60" as="geometry"/>
                </mxCell>
                <mxCell id="nWWq6aLDM8L6n2UznwfV-10" value="" style="edgeStyle=orthogonalEdgeStyle;rounded=1;orthogonalLoop=1;jettySize=auto;html=1;labelBackgroundColor=none;fontColor=#000000;fillColor=#ffe6cc;strokeColor=#d79b00;fontFamily=Roboto;fontSource=https%3A%2F%2Ffonts.googleapis.com%2Fcss%3Ffamily%3DRoboto;" parent="WIyWlLk6GJQsqaUBKTNV-1" source="nWWq6aLDM8L6n2UznwfV-7" target="nWWq6aLDM8L6n2UznwfV-9" edge="1">
                    <mxGeometry relative="1" as="geometry"/>
                </mxCell>
                <mxCell id="nWWq6aLDM8L6n2UznwfV-7" value="Create CSV Files" style="whiteSpace=wrap;html=1;rounded=1;glass=0;strokeWidth=1;shadow=0;fillStyle=auto;labelBackgroundColor=none;fillColor=#ffe6cc;strokeColor=#d79b00;fontFamily=Roboto;fontSource=https%3A%2F%2Ffonts.googleapis.com%2Fcss%3Ffamily%3DRoboto;fontColor=#000000;" parent="WIyWlLk6GJQsqaUBKTNV-1" vertex="1">
                    <mxGeometry x="100" y="460" width="120" height="60" as="geometry"/>
                </mxCell>
                <mxCell id="nWWq6aLDM8L6n2UznwfV-12" value="" style="edgeStyle=orthogonalEdgeStyle;rounded=1;orthogonalLoop=1;jettySize=auto;html=1;labelBackgroundColor=none;fontColor=#000000;fillColor=#ffe6cc;strokeColor=#d79b00;fontFamily=Roboto;fontSource=https%3A%2F%2Ffonts.googleapis.com%2Fcss%3Ffamily%3DRoboto;" parent="WIyWlLk6GJQsqaUBKTNV-1" source="nWWq6aLDM8L6n2UznwfV-9" target="nWWq6aLDM8L6n2UznwfV-11" edge="1">
                    <mxGeometry relative="1" as="geometry"/>
                </mxCell>
                <mxCell id="nWWq6aLDM8L6n2UznwfV-9" value="Load CSV into database staging tables" style="whiteSpace=wrap;html=1;rounded=1;glass=0;strokeWidth=1;shadow=0;fillStyle=auto;labelBackgroundColor=none;fillColor=#ffe6cc;strokeColor=#d79b00;fontFamily=Roboto;fontSource=https%3A%2F%2Ffonts.googleapis.com%2Fcss%3Ffamily%3DRoboto;fontColor=#000000;" parent="WIyWlLk6GJQsqaUBKTNV-1" vertex="1">
                    <mxGeometry x="100" y="555" width="120" height="60" as="geometry"/>
                </mxCell>
                <mxCell id="nWWq6aLDM8L6n2UznwfV-14" value="" style="edgeStyle=orthogonalEdgeStyle;rounded=1;orthogonalLoop=1;jettySize=auto;html=1;labelBackgroundColor=none;fontColor=#000000;fillColor=#ffe6cc;strokeColor=#d79b00;fontFamily=Roboto;fontSource=https%3A%2F%2Ffonts.googleapis.com%2Fcss%3Ffamily%3DRoboto;" parent="WIyWlLk6GJQsqaUBKTNV-1" source="nWWq6aLDM8L6n2UznwfV-11" target="nWWq6aLDM8L6n2UznwfV-13" edge="1">
                    <mxGeometry relative="1" as="geometry"/>
                </mxCell>
                <mxCell id="nWWq6aLDM8L6n2UznwfV-11" value="Merge Staging Data with Main Tables" style="whiteSpace=wrap;html=1;rounded=1;glass=0;strokeWidth=1;shadow=0;fillStyle=auto;labelBackgroundColor=none;fillColor=#ffe6cc;strokeColor=#d79b00;fontFamily=Roboto;fontSource=https%3A%2F%2Ffonts.googleapis.com%2Fcss%3Ffamily%3DRoboto;fontColor=#000000;" parent="WIyWlLk6GJQsqaUBKTNV-1" vertex="1">
                    <mxGeometry x="290" y="460" width="120" height="60" as="geometry"/>
                </mxCell>
                <mxCell id="nWWq6aLDM8L6n2UznwfV-19" value="" style="edgeStyle=orthogonalEdgeStyle;rounded=1;orthogonalLoop=1;jettySize=auto;html=1;labelBackgroundColor=none;fontColor=#000000;fillColor=#ffe6cc;strokeColor=#d79b00;fontFamily=Roboto;fontSource=https%3A%2F%2Ffonts.googleapis.com%2Fcss%3Ffamily%3DRoboto;" parent="WIyWlLk6GJQsqaUBKTNV-1" source="nWWq6aLDM8L6n2UznwfV-13" target="nWWq6aLDM8L6n2UznwfV-15" edge="1">
                    <mxGeometry relative="1" as="geometry"/>
                </mxCell>
                <mxCell id="nWWq6aLDM8L6n2UznwfV-13" value="Cleanup Data From Disk / Stage" style="whiteSpace=wrap;html=1;rounded=1;glass=0;strokeWidth=1;shadow=0;fillStyle=auto;labelBackgroundColor=none;fillColor=#ffe6cc;strokeColor=#d79b00;fontFamily=Roboto;fontSource=https%3A%2F%2Ffonts.googleapis.com%2Fcss%3Ffamily%3DRoboto;fontColor=#000000;" parent="WIyWlLk6GJQsqaUBKTNV-1" vertex="1">
                    <mxGeometry x="290" y="360" width="120" height="60" as="geometry"/>
                </mxCell>
                <mxCell id="nWWq6aLDM8L6n2UznwfV-18" value="" style="edgeStyle=orthogonalEdgeStyle;rounded=1;orthogonalLoop=1;jettySize=auto;html=1;labelBackgroundColor=none;fontColor=#000000;fillColor=#ffe6cc;strokeColor=#d79b00;fontFamily=Roboto;fontSource=https%3A%2F%2Ffonts.googleapis.com%2Fcss%3Ffamily%3DRoboto;" parent="WIyWlLk6GJQsqaUBKTNV-1" source="nWWq6aLDM8L6n2UznwfV-15" target="nWWq6aLDM8L6n2UznwfV-2" edge="1">
                    <mxGeometry relative="1" as="geometry"/>
                </mxCell>
                <mxCell id="nWWq6aLDM8L6n2UznwfV-15" value="Log Sync Progress" style="whiteSpace=wrap;html=1;rounded=1;glass=0;strokeWidth=1;shadow=0;fillStyle=auto;labelBackgroundColor=none;fillColor=#ffe6cc;strokeColor=#d79b00;fontFamily=Roboto;fontSource=https%3A%2F%2Ffonts.googleapis.com%2Fcss%3Ffamily%3DRoboto;fontColor=#000000;" parent="WIyWlLk6GJQsqaUBKTNV-1" vertex="1">
                    <mxGeometry x="290" y="260" width="120" height="60" as="geometry"/>
                </mxCell>
                <mxCell id="nWWq6aLDM8L6n2UznwfV-34" value="" style="edgeStyle=orthogonalEdgeStyle;rounded=1;orthogonalLoop=1;jettySize=auto;html=1;labelBackgroundColor=none;fontColor=#000000;fillColor=#e1d5e7;strokeColor=#9673a6;fontFamily=Roboto;fontSource=https%3A%2F%2Ffonts.googleapis.com%2Fcss%3Ffamily%3DRoboto;" parent="WIyWlLk6GJQsqaUBKTNV-1" source="nWWq6aLDM8L6n2UznwfV-20" target="nWWq6aLDM8L6n2UznwfV-24" edge="1">
                    <mxGeometry relative="1" as="geometry"/>
                </mxCell>
                <mxCell id="nWWq6aLDM8L6n2UznwfV-45" style="edgeStyle=orthogonalEdgeStyle;rounded=1;orthogonalLoop=1;jettySize=auto;html=1;exitX=0.5;exitY=0;exitDx=0;exitDy=0;entryX=1;entryY=0.5;entryDx=0;entryDy=0;curved=0;fontFamily=Roboto;fontSource=https%3A%2F%2Ffonts.googleapis.com%2Fcss%3Ffamily%3DRoboto;fontColor=#000000;" parent="WIyWlLk6GJQsqaUBKTNV-1" source="nWWq6aLDM8L6n2UznwfV-20" target="WIyWlLk6GJQsqaUBKTNV-11" edge="1">
                    <mxGeometry relative="1" as="geometry"/>
                </mxCell>
                <mxCell id="nWWq6aLDM8L6n2UznwfV-20" value="Generate Merged Manifest" style="whiteSpace=wrap;html=1;rounded=1;glass=0;strokeWidth=1;shadow=0;fillStyle=auto;labelBackgroundColor=none;fillColor=#e1d5e7;strokeColor=#9673a6;fontFamily=Roboto;fontSource=https%3A%2F%2Ffonts.googleapis.com%2Fcss%3Ffamily%3DRoboto;fontColor=#000000;" parent="WIyWlLk6GJQsqaUBKTNV-1" vertex="1">
                    <mxGeometry x="450" y="160" width="120" height="60" as="geometry"/>
                </mxCell>
                <mxCell id="nWWq6aLDM8L6n2UznwfV-38" value="" style="edgeStyle=orthogonalEdgeStyle;rounded=0;orthogonalLoop=1;jettySize=auto;html=1;fillColor=#e1d5e7;strokeColor=#9673a6;fontFamily=Roboto;fontSource=https%3A%2F%2Ffonts.googleapis.com%2Fcss%3Ffamily%3DRoboto;fontColor=#000000;" parent="WIyWlLk6GJQsqaUBKTNV-1" source="nWWq6aLDM8L6n2UznwfV-24" target="nWWq6aLDM8L6n2UznwfV-37" edge="1">
                    <mxGeometry relative="1" as="geometry"/>
                </mxCell>
                <mxCell id="nWWq6aLDM8L6n2UznwfV-24" value="Download Next Unsynced Merge_ID File" style="whiteSpace=wrap;html=1;rounded=1;glass=0;strokeWidth=1;shadow=0;fillStyle=auto;labelBackgroundColor=none;fillColor=#e1d5e7;strokeColor=#9673a6;fontFamily=Roboto;fontSource=https%3A%2F%2Ffonts.googleapis.com%2Fcss%3Ffamily%3DRoboto;fontColor=#000000;" parent="WIyWlLk6GJQsqaUBKTNV-1" vertex="1">
                    <mxGeometry x="450" y="260" width="120" height="60" as="geometry"/>
                </mxCell>
                <mxCell id="nWWq6aLDM8L6n2UznwfV-27" value="" style="edgeStyle=orthogonalEdgeStyle;rounded=1;orthogonalLoop=1;jettySize=auto;html=1;labelBackgroundColor=none;fontColor=#000000;fillColor=#e1d5e7;strokeColor=#9673a6;fontFamily=Roboto;fontSource=https%3A%2F%2Ffonts.googleapis.com%2Fcss%3Ffamily%3DRoboto;" parent="WIyWlLk6GJQsqaUBKTNV-1" source="nWWq6aLDM8L6n2UznwfV-28" target="nWWq6aLDM8L6n2UznwfV-30" edge="1">
                    <mxGeometry relative="1" as="geometry"/>
                </mxCell>
                <mxCell id="nWWq6aLDM8L6n2UznwfV-28" value="Load CSV into database staging table" style="whiteSpace=wrap;html=1;rounded=1;glass=0;strokeWidth=1;shadow=0;fillStyle=auto;labelBackgroundColor=none;fillColor=#e1d5e7;strokeColor=#9673a6;fontFamily=Roboto;fontSource=https%3A%2F%2Ffonts.googleapis.com%2Fcss%3Ffamily%3DRoboto;fontColor=#000000;" parent="WIyWlLk6GJQsqaUBKTNV-1" vertex="1">
                    <mxGeometry x="450" y="470" width="120" height="60" as="geometry"/>
                </mxCell>
                <mxCell id="nWWq6aLDM8L6n2UznwfV-29" value="" style="edgeStyle=orthogonalEdgeStyle;rounded=1;orthogonalLoop=1;jettySize=auto;html=1;labelBackgroundColor=none;fontColor=#000000;fillColor=#e1d5e7;strokeColor=#9673a6;fontFamily=Roboto;fontSource=https%3A%2F%2Ffonts.googleapis.com%2Fcss%3Ffamily%3DRoboto;" parent="WIyWlLk6GJQsqaUBKTNV-1" source="nWWq6aLDM8L6n2UznwfV-30" target="nWWq6aLDM8L6n2UznwfV-32" edge="1">
                    <mxGeometry relative="1" as="geometry"/>
                </mxCell>
                <mxCell id="nWWq6aLDM8L6n2UznwfV-30" value="Delete Main Table Records Using Staging Table" style="whiteSpace=wrap;html=1;rounded=1;glass=0;strokeWidth=1;shadow=0;fillStyle=auto;labelBackgroundColor=none;fillColor=#e1d5e7;strokeColor=#9673a6;fontFamily=Roboto;fontSource=https%3A%2F%2Ffonts.googleapis.com%2Fcss%3Ffamily%3DRoboto;fontColor=#000000;" parent="WIyWlLk6GJQsqaUBKTNV-1" vertex="1">
                    <mxGeometry x="620" y="470" width="120" height="60" as="geometry"/>
                </mxCell>
                <mxCell id="nWWq6aLDM8L6n2UznwfV-41" value="" style="edgeStyle=orthogonalEdgeStyle;rounded=0;orthogonalLoop=1;jettySize=auto;html=1;fillColor=#e1d5e7;strokeColor=#9673a6;fontFamily=Roboto;fontSource=https%3A%2F%2Ffonts.googleapis.com%2Fcss%3Ffamily%3DRoboto;fontColor=#000000;" parent="WIyWlLk6GJQsqaUBKTNV-1" source="nWWq6aLDM8L6n2UznwfV-32" target="nWWq6aLDM8L6n2UznwfV-40" edge="1">
                    <mxGeometry relative="1" as="geometry"/>
                </mxCell>
                <mxCell id="nWWq6aLDM8L6n2UznwfV-32" value="Cleanup Data From Disk / Stage" style="whiteSpace=wrap;html=1;rounded=1;glass=0;strokeWidth=1;shadow=0;fillStyle=auto;labelBackgroundColor=none;fillColor=#e1d5e7;strokeColor=#9673a6;fontFamily=Roboto;fontSource=https%3A%2F%2Ffonts.googleapis.com%2Fcss%3Ffamily%3DRoboto;fontColor=#000000;" parent="WIyWlLk6GJQsqaUBKTNV-1" vertex="1">
                    <mxGeometry x="620" y="360" width="120" height="60" as="geometry"/>
                </mxCell>
                <mxCell id="nWWq6aLDM8L6n2UznwfV-39" value="" style="edgeStyle=orthogonalEdgeStyle;rounded=0;orthogonalLoop=1;jettySize=auto;html=1;fillColor=#e1d5e7;strokeColor=#9673a6;fontFamily=Roboto;fontSource=https%3A%2F%2Ffonts.googleapis.com%2Fcss%3Ffamily%3DRoboto;fontColor=#000000;" parent="WIyWlLk6GJQsqaUBKTNV-1" source="nWWq6aLDM8L6n2UznwfV-37" target="nWWq6aLDM8L6n2UznwfV-28" edge="1">
                    <mxGeometry relative="1" as="geometry"/>
                </mxCell>
                <mxCell id="nWWq6aLDM8L6n2UznwfV-37" value="Uncompress File" style="whiteSpace=wrap;html=1;rounded=1;glass=0;strokeWidth=1;shadow=0;fillStyle=auto;labelBackgroundColor=none;fillColor=#e1d5e7;strokeColor=#9673a6;fontFamily=Roboto;fontSource=https%3A%2F%2Ffonts.googleapis.com%2Fcss%3Ffamily%3DRoboto;fontColor=#000000;" parent="WIyWlLk6GJQsqaUBKTNV-1" vertex="1">
                    <mxGeometry x="450" y="360" width="120" height="60" as="geometry"/>
                </mxCell>
                <mxCell id="nWWq6aLDM8L6n2UznwfV-42" value="" style="edgeStyle=orthogonalEdgeStyle;rounded=0;orthogonalLoop=1;jettySize=auto;html=1;fillColor=#e1d5e7;strokeColor=#9673a6;fontFamily=Roboto;fontSource=https%3A%2F%2Ffonts.googleapis.com%2Fcss%3Ffamily%3DRoboto;fontColor=#000000;" parent="WIyWlLk6GJQsqaUBKTNV-1" source="nWWq6aLDM8L6n2UznwfV-40" target="nWWq6aLDM8L6n2UznwfV-24" edge="1">
                    <mxGeometry relative="1" as="geometry"/>
                </mxCell>
                <mxCell id="nWWq6aLDM8L6n2UznwfV-40" value="Log Sync Progress" style="whiteSpace=wrap;html=1;rounded=1;glass=0;strokeWidth=1;shadow=0;fillStyle=auto;labelBackgroundColor=none;fillColor=#e1d5e7;strokeColor=#9673a6;fontFamily=Roboto;fontSource=https%3A%2F%2Ffonts.googleapis.com%2Fcss%3Ffamily%3DRoboto;fontColor=#000000;" parent="WIyWlLk6GJQsqaUBKTNV-1" vertex="1">
                    <mxGeometry x="620" y="260" width="120" height="60" as="geometry"/>
                </mxCell>
            </root>
        </mxGraphModel>
    </diagram>
</mxfile>